#!OML:ASF F:\VICON\USERDATA\INSTALL\rory3\rory3.ASF
:FULLY-SPECIFIED
:DEGREES


395
root 0.288721 17.8864 42.7715 -4.39047 -3.01749 -1.01224
lowerback 10.6182 0.79113 0.40508
upperback 0.635982 1.16314 1.14999
thorax -5.30911 0.576204 0.798463
lowerneck -14.7996 -2.73907 -2.68781
upperneck 20.2428 -3.55106 1.76313
head 8.85685 -1.68822 0.620757
rclavicle 1.67352e-014 2.04748e-014
rhumerus -27.826 -16.5064 -81.5631
rradius 31.9872
rwrist 6.33052
rhand -18.9641 24.3087
rfingers 7.12502
rthumb 7.33977 -5.54401
lclavicle 1.67352e-014 2.04748e-014
lhumerus -31.4916 6.63938 79.9318
lradius 21.2646
lwrist 3.49776
lhand -28.5935 20.3764
lfingers 7.12502
lthumb -1.95909 50.3471
rfemur -21.3403 -6.01571 22.668
rtibia 72.8019
rfoot -1.32532 -6.67825
rtoes 13.5804
lfemur -8.36409 -2.09022 -23.5636
ltibia 28.3023
lfoot -11.9905 -0.229003
ltoes 3.99082
396
root 0.293623 17.8799 42.935 -4.41418 -2.62752 -0.652427
lowerback 10.7673 0.630578 0.0337428
upperback 0.753781 0.903414 1.1234
thorax -5.27092 0.45642 1.01817
lowerneck -15.7168 -2.98535 -3.08138
upperneck 20.6729 -3.84894 2.0687
head 9.19604 -1.81643 0.739647
rclavicle -6.79595e-015 7.7526e-015
rhumerus -28.1196 -16.1541 -81.6592
rradius 32.555
rwrist 5.45429
rhand -18.8598 24.4208
rfingers 7.12502
rthumb 7.44047 -5.42831
lclavicle -6.79595e-015 7.7526e-015
lhumerus -30.7961 5.03038 80.7232
lradius 21.1473
lwrist 4.47842
lhand -31.4501 16.3031
lfingers 7.12502
lthumb -4.71777 46.2306
rfemur -22.3651 -6.15076 22.2809
rtibia 72.0188
rfoot -2.39439 -5.90477
rtoes 13.0692
lfemur -7.87843 -2.26258 -24.0699
ltibia 28.5602
lfoot -12.5397 -0.193401
ltoes 4.52508
397
root 0.284483 17.8679 43.0992 -4.46195 -2.55338 -0.675028
lowerback 10.7454 0.59944 -0.0687068
upperback 0.828651 0.852608 1.19433
thorax -5.1818 0.434164 1.15818
lowerneck -15.6669 -2.83026 -2.89111
upperneck 20.5498 -3.65133 1.94436
head 9.13208 -1.72354 0.691707
rclavicle -2.08103e-015 6.95746e-015
rhumerus -28.5382 -16.1651 -81.6458
rradius 32.7597
rwrist 5.14093
rhand -18.9368 24.341
rfingers 7.12502
rthumb 7.36615 -5.5108
lclavicle -2.08103e-015 6.95746e-015
lhumerus -30.1904 4.35041 80.8464
lradius 22.2814
lwrist 6.3901
lhand -28.6633 20.6066
lfingers 7.12502
lthumb -2.0265 50.5767
rfemur -23.3255 -5.82521 22.4914
rtibia 71.0634
rfoot -3.42003 -5.55407
rtoes 11.8385
lfemur -7.3307 -2.33102 -24.0839
ltibia 28.681
lfoot -13.0355 0.0548957
ltoes 4.38357
398
root 0.27302 17.8538 43.2626 -4.44794 -2.66955 -0.907545
lowerback 10.3737 0.656113 0.059914
upperback 1.10181 0.94228 1.29388
thorax -4.68981 0.4751 1.18027
lowerneck -15.5385 -3.03036 -3.37596
upperneck 20.0809 -3.95039 2.6038
head 8.97981 -1.8314 0.961954
rclavicle 3.80176e-015 6.16232e-015
rhumerus -28.2689 -16.2142 -81.7717
rradius 32.4534
rwrist 4.82871
rhand -19.1304 23.8018
rfingers 7.12502
rthumb 7.17929 -6.05646
lclavicle 3.80176e-015 6.16232e-015
lhumerus -29.2585 4.20019 80.7404
lradius 23.1726
lwrist 5.84771
lhand -26.0617 23.8412
lfingers 7.12502
lthumb 0.486124 53.8204
rfemur -24.3076 -5.28155 22.9797
rtibia 69.9534
rfoot -4.59653 -5.49021
rtoes 10.1538
lfemur -6.78501 -2.32581 -23.8418
ltibia 28.7314
lfoot -13.5331 0.337697
ltoes 4.63465
399
root 0.273015 17.8378 43.4307 -4.33295 -2.40013 -0.738939
lowerback 10.8073 0.5347 -0.154427
upperback 0.633514 0.764585 1.29647
thorax -5.42212 0.395287 1.32602
lowerneck -14.8888 -2.86611 -3.08619
upperneck 20.1725 -3.72613 2.20101
head 8.87061 -1.75366 0.81292
rclavicle 5.30507e-015 -2.78299e-015
rhumerus -29.3307 -15.7213 -81.6468
rradius 32.5865
rwrist 4.54039
rhand -19.3406 23.4563
rfingers 7.12502
rthumb 6.9764 -6.40876
lclavicle 5.30507e-015 -2.78299e-015
lhumerus -29.5972 3.64049 80.7472
lradius 23.7823
lwrist 5.52254
lhand -26.0904 23.422
lfingers 7.12502
lthumb 0.458426 53.4012
rfemur -25.3098 -5.21559 22.8416
rtibia 68.7378
rfoot -5.74573 -5.34499
rtoes 9.19993
lfemur -6.19447 -2.41768 -24.1183
ltibia 28.7784
lfoot -14.1837 0.579579
ltoes 4.07155
400
root 0.276086 17.824 43.6036 -4.3321 -2.08483 -0.111826
lowerback 10.8469 0.459415 -0.702162
upperback 0.639164 0.588586 1.13652
thorax -5.43767 0.320171 1.49459
lowerneck -14.9686 -2.74922 -2.81141
upperneck 20.1492 -3.55871 1.89474
head 8.86094 -1.68619 0.683051
rclavicle -6.41081e-015 -1.74931e-014
rhumerus -29.6939 -15.6736 -81.6181
rradius 32.7399
rwrist 4.32116
rhand -19.3611 23.7786
rfingers 7.12502
rthumb 6.95659 -6.08706
lclavicle -6.41081e-015 -1.74931e-014
lhumerus -29.1596 2.57112 81.0406
lradius 23.9547
lwrist 5.38846
lhand -27.2382 21.0918
lfingers 7.12502
lthumb -0.650148 51.0705
rfemur -26.1228 -5.25227 22.1164
rtibia 67.4234
rfoot -6.83062 -5.15867
rtoes 9.12848
lfemur -5.34648 -2.56567 -24.9435
ltibia 28.711
lfoot -14.7576 0.83785
ltoes 4.14383
